HIERARCHY
ROOT joint_0
{
	OFFSET 0.000000 0.000000 0.000000
	CHANNELS 6 Xposition Yposition Zposition Zrotation Yrotation Xrotation 
	JOINT joint_1
	{
		OFFSET 5.091736 1.614004 124.993042
		CHANNELS 3 Zrotation Yrotation Xrotation
		JOINT joint_2
		{
			OFFSET -7.754517 4.363039 113.797974
			CHANNELS 3 Zrotation Yrotation Xrotation
			JOINT joint_3
			{
				OFFSET -8.706238 5.370684 113.558960
				CHANNELS 3 Zrotation Yrotation Xrotation
				JOINT joint_4
				{
					OFFSET 2.800659 5.843341 158.209106
					CHANNELS 3 Zrotation Yrotation Xrotation
					JOINT joint_5
					{
						OFFSET 20.525452 8.617594 92.185913
						CHANNELS 3 Zrotation Yrotation Xrotation
						End Site
						{
							OFFSET 0.000000 0.000000 0.000000
						}
					}
				}
				JOINT joint_6
				{
					OFFSET -4.183167 -30.671114 90.057007
					CHANNELS 3 Zrotation Yrotation Xrotation
					JOINT joint_7
					{
						OFFSET -24.729675 -138.200195 -6.097900
						CHANNELS 3 Zrotation Yrotation Xrotation
						JOINT joint_8
						{
							OFFSET 16.966858 -51.567780 -315.633057
							CHANNELS 3 Zrotation Yrotation Xrotation
							JOINT joint_9
							{
								OFFSET 129.835388 -40.459091 176.646973
								CHANNELS 3 Zrotation Yrotation Xrotation
								End Site
								{
									OFFSET 0.000000 0.000000 0.000000
								}
							}
						}
					}
				}
				JOINT joint_10
				{
					OFFSET 7.338745 37.199406 87.346069
					CHANNELS 3 Zrotation Yrotation Xrotation
					JOINT joint_11
					{
						OFFSET 20.327698 137.488367 -20.779053
						CHANNELS 3 Zrotation Yrotation Xrotation
						JOINT joint_12
						{
							OFFSET 150.763062 48.206573 -278.419922
							CHANNELS 3 Zrotation Yrotation Xrotation
							JOINT joint_13
							{
								OFFSET 12.571289 -162.355251 152.253906
								CHANNELS 3 Zrotation Yrotation Xrotation
								End Site
								{
									OFFSET 0.000000 0.000000 0.000000
								}
							}
						}
					}
				}
			}
		}
	}
	JOINT joint_14
	{
		OFFSET -7.600342 -77.970001 -95.010986
		CHANNELS 3 Zrotation Yrotation Xrotation
		JOINT joint_15
		{
			OFFSET -2.666199 -21.455009 -443.700989
			CHANNELS 3 Zrotation Yrotation Xrotation
			JOINT joint_16
			{
				OFFSET -22.487976 -19.310196 -481.059006
				CHANNELS 3 Zrotation Yrotation Xrotation
				JOINT joint_17
				{
					OFFSET 177.776611 65.723053 -82.445997
					CHANNELS 3 Zrotation Yrotation Xrotation
					End Site
					{
						OFFSET 0.000000 0.000000 0.000000
					}
				}
			}
		}
	}
	JOINT joint_18
	{
		OFFSET 17.063904 75.900681 -95.447021
		CHANNELS 3 Zrotation Yrotation Xrotation
		JOINT joint_19
		{
			OFFSET -21.510803 8.101997 -443.629944
			CHANNELS 3 Zrotation Yrotation Xrotation
			JOINT joint_20
			{
				OFFSET -7.473022 -28.501774 -481.230011
				CHANNELS 3 Zrotation Yrotation Xrotation
				JOINT joint_21
				{
					OFFSET 177.760559 -64.115177 -83.737001
					CHANNELS 3 Zrotation Yrotation Xrotation
					End Site
					{
						OFFSET 0.000000 0.000000 0.000000
					}
				}
			}
		}
	}
}
MOTION
Frames: 7
Frame Time: 0.016667
409.779236 -54.276028 1122.088013 13.825099 -0.231322 0.283829 0.125345 0.342688 2.858976 -0.055489 -0.010101 -0.538326 0.028967 0.102860 0.477522 -0.568888 2.135865 2.021516 0.000000 0.000000 0.000000 1.900240 0.487200 5.820926 13.542462 0.360466 -3.696892 -179.062097 37.826180 176.369867 0.000000 0.000000 0.000000 -8.155205 16.975537 -3.241798 -17.590718 5.942077 1.636893 55.427987 -18.714087 113.171512 0.000000 0.000000 0.000000 -11.073144 1.796002 -1.384480 -10.968782 -0.156367 -0.561222 -10.679683 -4.793913 -3.153212 0.000000 0.000000 0.000000 -3.787882 -4.102563 2.513737 -3.634923 6.455573 3.968820 -2.784643 -4.633981 -2.959921 0.000000 0.000000 0.000000 
409.862976 -54.225212 1122.061035 13.833746 -0.248706 0.286353 0.125715 0.319973 2.861251 -0.056667 -0.007121 -0.538929 0.028251 0.097205 0.477716 -0.570201 2.147266 2.021567 0.000000 0.000000 0.000000 1.872272 0.537447 5.854033 13.522570 0.341429 -3.661938 -179.096498 37.834780 176.395380 0.000000 0.000000 0.000000 -8.140567 17.011570 -3.283500 -17.578266 5.953791 1.653538 55.422201 -18.730725 113.172824 0.000000 0.000000 0.000000 -11.076425 1.810572 -1.395999 -10.972223 -0.139061 -0.561588 -10.682087 -4.802530 -3.151029 0.000000 0.000000 0.000000 -3.788763 -4.088760 2.506050 -3.636338 6.474454 3.970530 -2.783748 -4.643614 -2.962978 0.000000 0.000000 0.000000 
409.947235 -54.169331 1122.032959 13.841601 -0.265100 0.288046 0.125665 0.295959 2.866945 -0.058590 -0.004107 -0.540660 0.026927 0.092446 0.479051 -0.571653 2.159345 2.021883 0.000000 0.000000 0.000000 1.842638 0.588332 5.889207 13.508941 0.323411 -3.633746 -179.128545 37.842939 176.413188 0.000000 0.000000 0.000000 -8.125495 17.046809 -3.325408 -17.565020 5.965419 1.668713 55.417741 -18.746025 113.173173 0.000000 0.000000 0.000000 -11.079680 1.826841 -1.408907 -10.975354 -0.126123 -0.557491 -10.684176 -4.808541 -3.149681 0.000000 0.000000 0.000000 -3.789556 -4.074886 2.499573 -3.637603 6.491277 3.971464 -2.783051 -4.650815 -2.965252 0.000000 0.000000 0.000000 
410.034058 -54.108192 1122.003052 13.848984 -0.281345 0.288808 0.125646 0.271829 2.876658 -0.060778 -0.002106 -0.544155 0.025476 0.087968 0.481201 -0.573552 2.172287 2.023529 0.000000 0.000000 0.000000 1.811000 0.640169 5.927350 13.495555 0.305988 -3.609957 -179.162677 37.848954 176.427298 0.000000 0.000000 0.000000 -8.109614 17.082182 -3.368484 -17.550831 5.977036 1.683772 55.413891 -18.760019 113.172275 0.000000 0.000000 0.000000 -11.083171 1.845140 -1.422866 -10.978484 -0.116215 -0.549665 -10.686212 -4.812954 -3.148912 0.000000 0.000000 0.000000 -3.790367 -4.060724 2.494025 -3.638826 6.507650 3.971939 -2.782444 -4.656759 -2.967115 0.000000 0.000000 0.000000 
410.117584 -54.044342 1121.973999 13.854538 -0.296626 0.290344 0.125387 0.247550 2.886112 -0.063235 0.000698 -0.547590 0.023818 0.083537 0.483697 -0.575336 2.187176 2.023981 0.000000 0.000000 0.000000 1.778267 0.692020 5.965753 13.483585 0.287775 -3.586432 -179.196686 37.855922 176.442471 0.000000 0.000000 0.000000 -8.093869 17.116291 -3.411524 -17.535059 5.988895 1.698994 55.411943 -18.772912 113.170070 0.000000 0.000000 0.000000 -11.086240 1.862562 -1.438350 -10.981198 -0.107327 -0.540350 -10.687804 -4.816975 -3.148094 0.000000 0.000000 0.000000 -3.790665 -4.045637 2.488506 -3.639565 6.520002 3.970760 -2.781937 -4.659630 -2.967923 0.000000 0.000000 0.000000 
410.191010 -53.979408 1121.947998 13.857181 -0.310839 0.293046 0.125688 0.226537 2.893472 -0.064660 0.001582 -0.548996 0.022778 0.079651 0.484526 -0.577552 2.205692 2.024778 0.000000 0.000000 0.000000 1.741708 0.744167 6.005023 13.474795 0.267790 -3.562160 -179.229097 37.866216 176.461504 0.000000 0.000000 0.000000 -8.080929 17.148112 -3.453053 -17.520242 6.001157 1.715999 55.409649 -18.783999 113.168501 0.000000 0.000000 0.000000 -11.088291 1.877683 -1.455106 -10.983032 -0.098328 -0.530677 -10.688514 -4.820401 -3.147100 0.000000 0.000000 0.000000 -3.789994 -4.028529 2.482808 -3.639455 6.525367 3.967914 -2.781461 -4.658562 -2.967335 0.000000 0.000000 0.000000 
410.258240 -53.913025 1121.925049 13.857997 -0.323890 0.296990 0.126009 0.206456 2.899871 -0.066014 0.001800 -0.551168 0.021840 0.077174 0.486266 -0.579768 2.227056 2.024604 0.000000 0.000000 0.000000 1.702733 0.795745 6.045125 13.467200 0.246194 -3.538021 -179.261817 37.877540 176.482406 0.000000 0.000000 0.000000 -8.069820 17.177877 -3.494659 -17.503888 6.013732 1.734316 55.409229 -18.793776 113.165673 0.000000 0.000000 0.000000 -11.089912 1.891083 -1.473741 -10.984510 -0.089794 -0.519566 -10.688812 -4.823600 -3.146012 0.000000 0.000000 0.000000 -3.788668 -4.010159 2.476998 -3.638743 6.525042 3.962792 -2.781201 -4.653028 -2.965247 0.000000 0.000000 0.000000 
